# xmcd CD database file
#
# Track frame offsets:
#	150
#	11887
#	25022
#	35446
#	47492
#	62576
#	78936
#	90227
#	102876
#	119172
#	128395
#	140448
#	153066
#	165082
#	178520
#	195232
#	206705
#	218787
#	230054
#	243644
#	252232
#
# Disc length: 3557 seconds
#
# Revision: 1
# Processed by: cddbd v1.4PL0 Copyright (c) Steve Scherf et al.
# Submitted via: CDex 1.50beta10
#
DISCID=080de315
DTITLE=Connie Francis - My Happiness
DYEAR=1900
DGENRE=Easy Listening
TTITLE0=My Happiness
TTITLE1=Blame It On My Youth
TTITLE2=Come Rain Or Come Shine
TTITLE3=Among My Souvenirs
TTITLE4=That's All
TTITLE5=How Did He Look?
TTITLE6=All By Myself
TTITLE7=Follow The Boys
TTITLE8=Melancholy Serenade
TTITLE9=The Song Is Ended
TTITLE10=Breaking In A Brand New Broken Heart
TTITLE11=Everybody's Somebody's Fool
TTITLE12=Frankie
TTITLE13=Hallelujah I Just Love Him So
TTITLE14=Hold Me, Thrill Me, Kiss Me
TTITLE15=I'm Gonna Be Warm This Winter
TTITLE16=My Heart Has A Mind Of It's Own
TTITLE17=Rock A Bye Your Baby With A Dixie Melody
TTITLE18=Second Hand Love
TTITLE19=There Will Never Be Another You
TTITLE20=Time After Time
EXTD=
EXTT0=
EXTT1=
EXTT2=
EXTT3=
EXTT4=
EXTT5=
EXTT6=
EXTT7=
EXTT8=
EXTT9=
EXTT10=
EXTT11=
EXTT12=
EXTT13=
EXTT14=
EXTT15=
EXTT16=
EXTT17=
EXTT18=
EXTT19=
EXTT20=
PLAYORDER=
